<svg xmlns="http://www.w3.org/2000/svg" width="24" height="24" viewBox="0 0 24 24">
  <g fill="none" fill-rule="evenodd" transform="translate(1 1)">
    <path fill="black" fill-rule="nonzero" d="M8.5,2 C12.0898509,2 15,4.91014913 15,8.5 C15,12.0898509 12.0898509,15 8.5,15 C4.91014913,15 2,12.0898509 2,8.5 C2.00550664,4.91243253 4.91243253,2.00550664 8.5,2 L8.5,2 Z M8.5,0 C3.80557963,-1.11022302e-15 6.66133815e-16,3.80557963 0,8.5 C-5.55111512e-16,13.1944204 3.80557963,17 8.5,17 C13.1944204,17 17,13.1944204 17,8.5 C17,6.24565984 16.1044669,4.08365158 14.5104076,2.48959236 C12.9163484,0.895533143 10.7543402,4.4408921e-16 8.5,2.22044605e-16 L8.5,0 Z"/>
    <path stroke="black" stroke-linecap="round" stroke-width="2" d="M14,14 L21.25,21.25"/>
  </g>
</svg>
